<?xml version="1.0" encoding="UTF-8"?><svg id="Layer_1" xmlns="http://www.w3.org/2000/svg" viewBox="0 0 354.17 378.26"><defs><style>.cls-1{fill:lime;}.cls-2{fill:#1d1d1b;}</style></defs><path class="cls-1" d="M345.42,276.41l4.78-2.23-4.5-3.6-56.42-2.7-32.06-23.46-35.55-104.05,11.93-2.86,11.08,14.65-9.96,10.44,6.54,14.02,31.37-.63,12.05,9.32,21.53,33.33,2.66,.82-.76-4.53-20.99-33.7-13.11-9.2-30-.3-.97-5.82,5.95-8.02v.02s11.97-4.4,11.97-4.4l4.65,5.62,10.68,1.15,4.46-3.66-11.91-1.26-2.76-3.97-.14-.85,4.6,1.96,10.66,2.81-2.8-5.04-8.92-3.12-4.56-2.69-2.97-17.74,41.34-4.03,36.72-11.41,1.71-3.94-3.45-1.63-39.86,12.81-37.36,2.78-.81-4.87,28.25-15.88,28.22-32.73L340.03,0l-5.01,.84-23.44,65.73-28.57,29.37-33.47,17.14-5.25,2.18-.27-1.64,1.93-33.91-42.82,3.92-6.82-43.29-9.32,.13-4.21,45.03-14.87,1.36,1.87-1.2-24.41-37.99-9.96,3.11,8.69,38.26-14.46,1.32-34.2-46.21-7.54,6.32,12.55,42.56L10.7,101.26l-3.88,20.94,101.07-3.99,5.57,18.87-71.42,47.1,8.93,13.15,79.85-1.38,6.19,20.99-78.86,89.34-.02,1.74L1.72,323.18l-1.72,3.59,2.46,3.13,57.5-16.21,1.88-1.01,77.42-88.11,1.99,6.75,1.75-.1-27.09,97.46,1.34,1.96-45.17,26.25-.18,5.68,3.36,1.03,46.58-28.87,25.46-103.5-3.32-12.02,6.08-6.92,1.35-6.15-1.19-36.07,6.82-10.19,11.73,70.08,2.12,.15-16.63,48.77,2.75,3.75,2.8-1.93,16.44-49.95-12.51-80.89,8.88-13.27,11.42,10.88,1.39,4.81,47.54,147.35,.56,78.63,5.84-.04-.56-79.08v-.45s-47.8-148.11-47.8-148.11l-.77-2.67,18.25-4.38,24.78,92.76,17.14,11.79,8.76,26.94,41.29,22.07,39.56,12.39,3.36-2.49-3.64-4.74-37.77-9.49-37.71-21.03,1.19-3.21-4.51-13.19,26.64,18.33,57.84,2.76ZM193.34,59.08l3.95,25.08-8.24,.75,4.29-25.84Zm-44.63,4.6l15.13,23.55-10.33,.95-4.8-24.49Zm-48.63-3.43l22.75,30.74-13.91,1.27-8.84-32.01Zm15.91,57.64l26.6-1.05,.03,.99-22.55,14.87-4.09-14.81Zm29.54,89.39l-3.71,4.2-5.65-20.47,8.42-12.58,.94,28.85Zm93.51,23.84l1.22-2.72-25.62-86.35,1.18-.28,30.9,94.98-7.68-5.62Z"/><path class="cls-2" d="M349.39,276.41l4.78-2.23-4.5-3.6-56.42-2.7-32.06-23.46-35.55-104.05,11.93-2.86,11.08,14.65-9.96,10.44,6.54,14.02,31.37-.63,12.05,9.32,21.53,33.33,2.66,.82-.76-4.53-20.99-33.7-13.11-9.2-30-.3-.97-5.82,5.95-8.02v.02s11.97-4.4,11.97-4.4l4.65,5.62,10.68,1.15,4.46-3.66-11.91-1.26-2.76-3.97-.14-.85,4.6,1.96,10.66,2.81-2.8-5.04-8.92-3.12-4.56-2.69-2.97-17.74,41.34-4.03,36.72-11.41,1.7-3.94-3.45-1.63-39.86,12.81-37.36,2.78-.81-4.87,28.25-15.88,28.22-32.73L344,0l-5.01,.84-23.44,65.73-28.57,29.37-33.47,17.14-5.25,2.18-.27-1.64,1.93-33.91-42.82,3.92-6.82-43.29-9.32,.13-4.21,45.03-14.87,1.36,1.87-1.2-24.41-37.99-9.96,3.11,8.69,38.26-14.46,1.32-34.2-46.21-7.54,6.32,12.55,42.56L14.67,101.26l-3.88,20.94,101.07-3.99,5.57,18.87-71.42,47.1,8.93,13.15,79.85-1.38,6.19,20.99-78.86,89.34-.02,1.74-56.4,15.15-1.72,3.59,2.46,3.13,57.5-16.21,1.87-1.01,77.42-88.11,1.99,6.75,1.75-.1-27.09,97.46,1.34,1.96-45.17,26.25-.18,5.68,3.36,1.03,46.58-28.87,25.46-103.5-3.32-12.02,6.08-6.92,1.35-6.15-1.19-36.07,6.82-10.19,11.73,70.09,2.12,.15-16.63,48.77,2.75,3.75,2.8-1.93,16.44-49.95-12.51-80.89,8.88-13.27,11.42,10.88,1.39,4.81,47.54,147.35,.56,78.63,5.84-.04-.56-79.08v-.45s-47.8-148.11-47.8-148.11l-.77-2.67,18.25-4.38,24.78,92.76,17.14,11.79,8.76,26.94,41.29,22.07,39.56,12.39,3.36-2.49-3.64-4.74-37.77-9.49-37.71-21.03,1.19-3.21-4.51-13.19,26.64,18.33,57.84,2.76ZM197.32,59.08l3.95,25.08-8.24,.75,4.29-25.84Zm-44.63,4.6l15.13,23.55-10.33,.95-4.8-24.49Zm-48.63-3.43l22.75,30.74-13.91,1.27-8.84-32.01Zm15.91,57.64l26.6-1.05,.03,.99-22.54,14.87-4.09-14.81Zm29.54,89.39l-3.71,4.2-5.65-20.47,8.42-12.58,.94,28.85Zm93.51,23.84l1.22-2.72-25.62-86.35,1.18-.28,30.9,94.98-7.68-5.62Z"/></svg>